<?xml version="1.0" encoding="UTF-8"?>
<svg version="1.1" xmlns="http://www.w3.org/2000/svg" width="1024" height="1024">
<path d="M0 0 C337.92 0 675.84 0 1024 0 C1024 337.92 1024 675.84 1024 1024 C686.08 1024 348.16 1024 0 1024 C0 686.08 0 348.16 0 0 Z " fill="#FDFDFD" transform="translate(0,0)"/>
<path d="M0 0 C30.36135386 -0.69521118 60.88843075 2.61393564 89.5703125 13.05761719 C90.35744629 13.33831055 91.14458008 13.61900391 91.95556641 13.90820312 C124.89316403 25.72746637 154.50826845 42.58227698 180.046875 66.68652344 C182.17052499 68.68196546 184.33454421 70.56643508 186.5703125 72.43261719 C229.83967437 110.25985313 258.71872091 173.37275125 262.79904175 230.24572754 C263.08507081 236.78285851 263.09896515 243.31380301 263.03686523 249.85595703 C263.00776545 253.18800496 263.01635138 256.51846316 263.02929688 259.85058594 C263.01236473 277.59457492 261.08642521 294.69162246 257.1328125 311.99511719 C256.91818359 312.95329346 256.70355469 313.91146973 256.48242188 314.89868164 C253.78991063 326.73434587 250.4789105 337.93054252 245.5703125 349.05761719 C245.09078125 350.21132813 244.61125 351.36503906 244.1171875 352.55371094 C230.65079861 384.75119551 211.57259421 411.90207269 187.5703125 437.05761719 C186.93867187 437.73050781 186.30703125 438.40339844 185.65625 439.09667969 C180.70602293 444.2345931 175.15522529 448.63320576 169.5703125 453.05761719 C168.55710937 453.86457031 167.54390625 454.67152344 166.5 455.50292969 C113.26599924 497.46112877 44.97948175 516.51300246 -22.32568359 508.92114258 C-36.63496159 507.07742942 -50.58403658 504.09303303 -64.4296875 500.05761719 C-65.61812256 499.7139209 -65.61812256 499.7139209 -66.83056641 499.36328125 C-98.09598877 490.11585648 -127.49847352 474.03210538 -152.4296875 453.05761719 C-153.18983154 452.43064941 -153.18983154 452.43064941 -153.96533203 451.79101562 C-167.28226839 440.8028741 -179.61552045 429.05141364 -190.0234375 415.23730469 C-192.06636334 412.53772411 -194.18440243 409.95546508 -196.3671875 407.37011719 C-212.59907596 387.05536108 -223.31803922 363.19420513 -232.4296875 339.05761719 C-232.70151855 338.3628125 -232.97334961 337.66800781 -233.25341797 336.95214844 C-238.49232094 323.544047 -240.8080266 309.15396505 -243.4296875 295.05761719 C-243.61337891 294.09436523 -243.79707031 293.13111328 -243.98632812 292.13867188 C-255.2132698 231.41925624 -238.23297438 163.9156234 -203.84033203 113.31103516 C-199.26388838 106.71082264 -194.50738312 100.28219806 -189.4296875 94.05761719 C-188.97658203 93.50154785 -188.52347656 92.94547852 -188.05664062 92.37255859 C-177.36652883 79.36185669 -165.76813306 67.37245138 -152.4296875 57.05761719 C-151.15320338 56.04124554 -149.87719564 55.02427542 -148.6015625 54.00683594 C-138.68156941 46.1712175 -128.42767208 39.28688286 -117.4296875 33.05761719 C-116.61516113 32.59613281 -115.80063477 32.13464844 -114.96142578 31.65917969 C-79.7021802 11.9352517 -40.41470467 0.95838729 0 0 Z " fill="#FDFDFD" transform="translate(503.4296875,256.9423828125)"/>
<path d="M0 0 C30.36135386 -0.69521118 60.88843075 2.61393564 89.5703125 13.05761719 C90.35744629 13.33831055 91.14458008 13.61900391 91.95556641 13.90820312 C124.89316403 25.72746637 154.50826845 42.58227698 180.046875 66.68652344 C182.17052499 68.68196546 184.33454421 70.56643508 186.5703125 72.43261719 C229.83967437 110.25985313 258.71872091 173.37275125 262.79904175 230.24572754 C263.08507081 236.78285851 263.09896515 243.31380301 263.03686523 249.85595703 C263.00776545 253.18800496 263.01635138 256.51846316 263.02929688 259.85058594 C263.01236473 277.59457492 261.08642521 294.69162246 257.1328125 311.99511719 C256.91818359 312.95329346 256.70355469 313.91146973 256.48242188 314.89868164 C253.78991063 326.73434587 250.4789105 337.93054252 245.5703125 349.05761719 C245.09078125 350.21132813 244.61125 351.36503906 244.1171875 352.55371094 C230.65079861 384.75119551 211.57259421 411.90207269 187.5703125 437.05761719 C186.93867187 437.73050781 186.30703125 438.40339844 185.65625 439.09667969 C180.70602293 444.2345931 175.15522529 448.63320576 169.5703125 453.05761719 C168.55710937 453.86457031 167.54390625 454.67152344 166.5 455.50292969 C113.26599924 497.46112877 44.97948175 516.51300246 -22.32568359 508.92114258 C-36.63496159 507.07742942 -50.58403658 504.09303303 -64.4296875 500.05761719 C-65.61812256 499.7139209 -65.61812256 499.7139209 -66.83056641 499.36328125 C-98.09598877 490.11585648 -127.49847352 474.03210538 -152.4296875 453.05761719 C-153.18983154 452.43064941 -153.18983154 452.43064941 -153.96533203 451.79101562 C-167.28226839 440.8028741 -179.61552045 429.05141364 -190.0234375 415.23730469 C-192.06636334 412.53772411 -194.18440243 409.95546508 -196.3671875 407.37011719 C-212.59907596 387.05536108 -223.31803922 363.19420513 -232.4296875 339.05761719 C-232.70151855 338.3628125 -232.97334961 337.66800781 -233.25341797 336.95214844 C-238.49232094 323.544047 -240.8080266 309.15396505 -243.4296875 295.05761719 C-243.61337891 294.09436523 -243.79707031 293.13111328 -243.98632812 292.13867188 C-255.2132698 231.41925624 -238.23297438 163.9156234 -203.84033203 113.31103516 C-199.26388838 106.71082264 -194.50738312 100.28219806 -189.4296875 94.05761719 C-188.97658203 93.50154785 -188.52347656 92.94547852 -188.05664062 92.37255859 C-177.36652883 79.36185669 -165.76813306 67.37245138 -152.4296875 57.05761719 C-151.15320338 56.04124554 -149.87719564 55.02427542 -148.6015625 54.00683594 C-138.68156941 46.1712175 -128.42767208 39.28688286 -117.4296875 33.05761719 C-116.61516113 32.59613281 -115.80063477 32.13464844 -114.96142578 31.65917969 C-79.7021802 11.9352517 -40.41470467 0.95838729 0 0 Z M-39.4296875 13.05761719 C-41.11295042 13.39779997 -42.79653623 13.73638963 -44.48046875 14.07324219 C-85.7856898 22.5749075 -125.10807237 43.05407763 -155.95703125 71.77246094 C-158.02828849 73.68665602 -160.13883451 75.5034933 -162.3046875 77.30761719 C-171.64207461 85.43460226 -180.04638993 95.15319362 -187.4296875 105.05761719 C-187.87135254 105.64849121 -188.31301758 106.23936523 -188.76806641 106.84814453 C-196.62552466 117.43931614 -203.30893096 128.38645932 -209.4296875 140.05761719 C-209.78514648 140.72083984 -210.14060547 141.3840625 -210.50683594 142.06738281 C-226.41639983 171.79511254 -237.44872529 207.39354969 -237.6328125 241.25292969 C-237.63978149 242.11468811 -237.64675049 242.97644653 -237.65393066 243.86431885 C-237.67126427 246.63713498 -237.67765272 249.40974909 -237.6796875 252.18261719 C-237.68069458 253.12824524 -237.68170166 254.07387329 -237.68273926 255.04815674 C-237.6726999 268.9576862 -237.10264501 282.37618259 -234.4296875 296.05761719 C-234.13478664 297.73957124 -233.84185526 299.42187165 -233.55078125 301.10449219 C-229.06948361 326.06283046 -220.3441629 349.71444496 -208.4296875 372.05761719 C-208.08856934 372.70649902 -207.74745117 373.35538086 -207.39599609 374.02392578 C-198.91356935 390.06823646 -188.44063608 404.48397333 -176.4296875 418.05761719 C-175.67042969 418.92773438 -174.91117188 419.79785156 -174.12890625 420.69433594 C-146.44367146 452.01848259 -110.02448202 475.70491265 -70.4296875 489.05761719 C-69.59872559 489.33831055 -68.76776367 489.61900391 -67.91162109 489.90820312 C-55.29064608 494.09138009 -42.54338532 496.92074484 -29.4296875 499.05761719 C-28.45128906 499.23711914 -27.47289062 499.41662109 -26.46484375 499.6015625 C-16.35472202 501.29762881 -6.36540372 501.36244333 3.86376953 501.31835938 C6.8013192 501.3076862 9.73825063 501.31828495 12.67578125 501.33105469 C28.0768884 501.34335512 43.2394832 500.38971771 58.3203125 497.05761719 C59.25657471 496.85104492 60.19283691 496.64447266 61.1574707 496.43164062 C114.53413769 483.98242367 165.61088473 454.64072644 199.5703125 411.05761719 C200.57779765 409.80214609 201.58563327 408.54695619 202.59375 407.29199219 C228.123441 375.14761584 244.77696927 336.47308666 251.5703125 296.05761719 C251.73112305 295.1870166 251.89193359 294.31641602 252.05761719 293.41943359 C256.7696835 267.6293717 256.82754983 238.7538656 251.5703125 213.05761719 C251.23757838 211.25305915 250.90557822 209.44836565 250.57421875 207.64355469 C241.99781524 163.06700578 221.32485661 122.95226987 190.82421875 89.53417969 C189.2960929 87.85509513 187.78345392 86.16180896 186.28515625 84.45605469 C181.66867857 79.21401656 176.92270701 74.53332639 171.5703125 70.05761719 C170.17039062 68.82591797 170.17039062 68.82591797 168.7421875 67.56933594 C145.73956736 47.42755804 117.69820567 31.35460227 88.5703125 22.05761719 C87.07029105 21.53684562 85.57028902 21.01601813 84.0703125 20.49511719 C82.57240263 20.00945606 81.07219592 19.53084745 79.5703125 19.05761719 C78.61769531 18.75082031 77.66507813 18.44402344 76.68359375 18.12792969 C69.44341806 15.91731983 62.19791674 14.3027033 54.7578125 12.93261719 C53.90614502 12.77414307 53.05447754 12.61566895 52.17700195 12.45239258 C36.95769109 9.75714416 22.00891794 8.65027713 6.5703125 8.68261719 C5.67633759 8.68249634 4.78236267 8.68237549 3.86129761 8.68225098 C-10.93793609 8.71061748 -24.93702536 9.89717247 -39.4296875 13.05761719 Z " fill="#263D5B" transform="translate(503.4296875,256.9423828125)"/>
<path d="M0 0 C0.89024872 -0.00012085 1.78049744 -0.0002417 2.69772339 -0.00036621 C24.70317453 0.04188724 46.22482434 2.26287312 67.4375 8.375 C69.3753648 8.85897635 71.31323709 9.34293121 73.25195312 9.82348633 C80.657435 11.69447273 87.47596998 14.26841723 94.4375 17.375 C95.613125 17.86613281 96.78875 18.35726563 98 18.86328125 C113.85161775 25.51263378 129.51368442 33.23570987 143.4375 43.375 C144.4275 44.09300781 145.4175 44.81101562 146.4375 45.55078125 C161.1991938 56.45259338 175.67964648 68.20527909 187.4375 82.375 C188.356939 83.42401511 189.27907404 84.47067017 190.203125 85.515625 C200.29150287 96.98042165 208.63274081 109.23648646 216.4375 122.375 C216.78780273 122.94992187 217.13810547 123.52484375 217.49902344 124.1171875 C232.48974112 148.79193574 240.99331797 176.20210174 246.4375 204.375 C246.60411133 205.17969727 246.77072266 205.98439453 246.94238281 206.81347656 C252.65485334 234.90274677 250.55528255 265.38509487 245.4375 293.375 C245.29860352 294.2004834 245.15970703 295.0259668 245.01660156 295.87646484 C238.45438228 334.52342804 219.07903237 372.98613779 193.88476562 402.65136719 C191.86584593 405.05581608 189.94184554 407.53313697 188 410 C179.29260066 420.608648 169.26990604 429.97718877 158.4375 438.375 C157.00083984 439.53708984 157.00083984 439.53708984 155.53515625 440.72265625 C125.88037939 464.31933241 90.73895925 479.85518514 53.875 488.125 C52.56595703 488.42325684 52.56595703 488.42325684 51.23046875 488.72753906 C35.08942727 492.16694958 18.8834372 492.78432232 2.4375 492.75 C1.45126648 492.74945618 0.46503296 492.74891235 -0.55108643 492.74835205 C-16.22202909 492.70873334 -31.23040406 491.87713448 -46.5625 488.375 C-47.5421875 488.15537598 -48.521875 487.93575195 -49.53125 487.70947266 C-56.27843975 486.15775079 -62.930939 484.36131157 -69.5625 482.375 C-70.3884668 482.12943359 -71.21443359 481.88386719 -72.06542969 481.63085938 C-93.42539564 475.11542509 -114.16633348 465.02429902 -132.5625 452.375 C-133.15772461 451.97216797 -133.75294922 451.56933594 -134.36621094 451.15429688 C-143.25570199 445.11308109 -151.46515454 438.43141471 -159.5625 431.375 C-160.63564453 430.47007812 -160.63564453 430.47007812 -161.73046875 429.546875 C-171.69539436 421.08182479 -180.52378849 411.66969094 -188.5625 401.375 C-189.33980469 400.41464844 -190.11710937 399.45429687 -190.91796875 398.46484375 C-219.14864744 362.96330663 -235.5079012 320.10243048 -241.5625 275.375 C-241.6567627 274.70041748 -241.75102539 274.02583496 -241.84814453 273.33081055 C-245.78506261 240.53864078 -242.9139947 205.72462409 -232.5625 174.375 C-232.31274414 173.59721191 -232.06298828 172.81942383 -231.80566406 172.01806641 C-223.34288517 145.84767367 -211.24193757 121.30321163 -194.5625 99.375 C-193.94890625 98.55 -193.3353125 97.725 -192.703125 96.875 C-188.9635254 91.93461154 -184.91004526 87.32996999 -180.7265625 82.76171875 C-178.90637559 80.75425629 -177.16937212 78.70768724 -175.4375 76.625 C-164.93439007 64.65241827 -152.4378564 54.65795019 -139.5625 45.375 C-138.94971191 44.9320459 -138.33692383 44.4890918 -137.70556641 44.03271484 C-120.98976185 32.09547499 -102.66090992 22.82733259 -83.5625 15.375 C-82.15097656 14.79878906 -82.15097656 14.79878906 -80.7109375 14.2109375 C-66.03097329 8.478761 -50.13001806 4.72437885 -34.5625 2.375 C-33.5324585 2.20726074 -32.50241699 2.03952148 -31.44116211 1.86669922 C-20.93318929 0.28445854 -10.61008166 -0.02223844 0 0 Z M-141.5625 56.375 C-142.47128906 57.09171875 -143.38007813 57.8084375 -144.31640625 58.546875 C-158.39378788 69.84081986 -171.36962192 82.19862131 -182.5625 96.375 C-183.33207031 97.31601562 -184.10164063 98.25703125 -184.89453125 99.2265625 C-214.67957765 136.4699 -234.49863525 185.65734272 -234.765625 233.6953125 C-234.77263931 234.54868195 -234.77965363 235.40205139 -234.78688049 236.28128052 C-234.80428014 239.02090809 -234.81073312 241.76031919 -234.8125 244.5 C-234.81317474 245.43807495 -234.81384949 246.3761499 -234.81454468 247.34265137 C-234.73756371 314.75495794 -207.18008682 374.07566745 -159.76831055 421.41601562 C-153.41464005 427.64997183 -146.80124938 433.20319744 -139.5625 438.375 C-138.8303125 438.90270996 -138.098125 439.43041992 -137.34375 439.97412109 C-118.42998916 453.46339666 -97.73474416 465.21236145 -75.5625 472.375 C-74.06735499 472.88699012 -72.5725814 473.40006583 -71.078125 473.9140625 C-27.14268857 488.73045192 24.13053166 490.7994319 68.4375 476.375 C69.45714844 476.09269531 70.47679687 475.81039063 71.52734375 475.51953125 C93.79494256 469.28694446 115.2831866 459.29433162 134.4375 446.375 C135.46101563 445.69953125 136.48453125 445.0240625 137.5390625 444.328125 C145.65949508 438.86282192 153.06862674 432.80798695 160.4375 426.375 C161.15421875 425.77042969 161.8709375 425.16585938 162.609375 424.54296875 C172.5739903 416.08128097 181.40041223 406.66761151 189.4375 396.375 C190.21480469 395.41464844 190.99210937 394.45429687 191.79296875 393.46484375 C218.10847866 360.37173034 235.04117733 319.25139835 240.4375 277.375 C240.53248779 276.64579346 240.62747559 275.91658691 240.7253418 275.1652832 C243.50856558 249.85526346 243.39808246 222.16538335 237.4375 197.375 C237.05866009 195.65261509 236.68105953 193.92995712 236.3046875 192.20703125 C229.15487353 160.66231703 215.14649476 130.06100277 195.4375 104.375 C194.71433594 103.38628906 193.99117187 102.39757812 193.24609375 101.37890625 C157.03650366 52.64211036 100.75595693 19.22202192 40.83634949 10.14237976 C29.34379772 8.5029201 18.08766074 7.9365319 6.4855957 8.03881836 C3.60795371 8.06264112 0.73123317 8.05931174 -2.14648438 8.05273438 C-52.19809634 8.12883393 -102.32182276 25.07253724 -141.5625 56.375 Z " fill="#F5F8F8" transform="translate(508.5625,265.625)"/>
<path d="M0 0 C1.50016663 -0.00392761 1.50016663 -0.00392761 3.03063965 -0.00793457 C19.21352573 -0.01246777 34.61163222 1.03856932 50.5 4.3125 C51.98407418 4.5823886 53.46842641 4.85075529 54.953125 5.1171875 C111.95372655 16.15699032 164.86959273 55.4572695 197.30737305 102.76000977 C217.44938567 132.6889797 229.96590197 164.88476996 236.5 200.3125 C236.69722656 201.28453369 236.89445312 202.25656738 237.09765625 203.25805664 C238.87999421 212.97796085 238.80299991 222.68365667 238.76074219 232.53051758 C238.75008343 235.4769377 238.76065592 238.42273971 238.7734375 241.36914062 C238.78615872 257.12428703 237.65164898 272.49221658 234.375 287.9375 C234.16327148 288.93692627 233.95154297 289.93635254 233.73339844 290.96606445 C223.66418892 336.26688575 200.43761547 375.18650814 168.5 408.3125 C167.26056641 409.61380859 167.26056641 409.61380859 165.99609375 410.94140625 C125.14249451 452.96433928 63.29305663 476.64745312 5.34326172 477.74047852 C-9.73722421 477.78043904 -24.5870391 476.50086771 -39.5 474.3125 C-40.36818359 474.1892334 -41.23636719 474.0659668 -42.13085938 473.93896484 C-72.79142766 469.36924327 -103.78162746 456.41421339 -129.5 439.3125 C-130.51151123 438.64033447 -130.51151123 438.64033447 -131.54345703 437.95458984 C-155.21571147 422.05290495 -175.91106972 402.549887 -192.5 379.3125 C-193.15871094 378.42691406 -193.81742187 377.54132813 -194.49609375 376.62890625 C-224.03365566 336.17677181 -237.71306234 287.63552304 -237.75 238 C-237.75100708 237.0625293 -237.75201416 236.12505859 -237.75305176 235.15917969 C-237.74298874 221.31720079 -237.22811372 207.92009142 -234.5 194.3125 C-234.24158613 192.860784 -233.98376726 191.40896196 -233.7265625 189.95703125 C-225.00071893 143.80273337 -200.4669737 102.97242869 -168.5 69.3125 C-167.71496094 68.48492187 -166.92992187 67.65734375 -166.12109375 66.8046875 C-157.15069936 57.59358486 -146.90212145 49.83010679 -136.5 42.3125 C-135.43910156 41.54292969 -134.37820313 40.77335937 -133.28515625 39.98046875 C-110.44870025 23.87548318 -84.51654357 13.03019867 -57.5 6.3125 C-56.31664062 6.01601563 -55.13328125 5.71953125 -53.9140625 5.4140625 C-35.93691561 1.10125529 -18.41482751 0.04603141 0 0 Z M-150.5 58.3125 C-151.2734375 58.97378906 -152.046875 59.63507813 -152.84375 60.31640625 C-165.06454032 71.05033374 -176.61084541 82.50582895 -186.25732422 95.62548828 C-187.47864961 97.28351549 -188.72377916 98.92126498 -189.97265625 100.55859375 C-210.70402461 128.17031327 -223.98732524 160.54561437 -230.5 194.3125 C-230.64421387 195.04871582 -230.78842773 195.78493164 -230.93701172 196.54345703 C-235.42070173 219.69826113 -236.28350407 243.82462386 -232.81201172 267.19824219 C-232.48667058 269.40282302 -232.19783485 271.61052515 -231.91015625 273.8203125 C-223.76178879 333.51432345 -189.84624906 389.15587545 -142.12890625 425.62109375 C-114.80937354 446.09414351 -83.9369794 460.55714433 -50.6875 468.125 C-49.41277832 468.41528076 -48.13805664 468.70556152 -46.82470703 469.00463867 C-32.45564308 472.1483932 -18.67484493 473.64943584 -4.01196289 473.57324219 C-1.56826902 473.5625253 0.87468761 473.57320622 3.31835938 473.5859375 C17.88595442 473.60042149 31.84158291 471.87601251 46.125 468.9375 C47.7500647 468.60443848 47.7500647 468.60443848 49.40795898 468.26464844 C86.20481561 460.58540053 120.64678899 444.46346009 149.5 420.3125 C150.10215332 419.81186035 150.70430664 419.3112207 151.32470703 418.79541016 C161.1313555 410.61508006 170.29436434 402.12770266 178.5 392.3125 C178.92796875 391.80364258 179.3559375 391.29478516 179.796875 390.77050781 C197.2893133 369.85406888 210.40253688 346.5888601 220.5 321.3125 C220.78858887 320.60867188 221.07717773 319.90484375 221.37451172 319.1796875 C235.15408915 285.25049263 239.23951248 244.38424617 233.5 208.3125 C233.31047894 206.80135414 233.12583211 205.28959132 232.9453125 203.77734375 C229.56481568 176.74975287 220.24683523 151.26441039 207.5 127.3125 C206.99629883 126.34715332 206.99629883 126.34715332 206.48242188 125.36230469 C197.07567856 107.41452404 184.84148888 90.19490655 170.265625 76.078125 C168.5 74.3125 168.5 74.3125 166 71.25 C162.80557017 67.49654495 159.28975156 64.45308116 155.5 61.3125 C154.99210937 60.88694824 154.48421875 60.46139648 153.9609375 60.02294922 C122.95680311 34.14711496 86.26418704 15.28079315 46.5 7.3125 C45.62875488 7.13203125 44.75750977 6.9515625 43.85986328 6.765625 C-24.28538418 -6.879559 -97.90328887 13.24092073 -150.5 58.3125 Z " fill="#71C9D3" transform="translate(511.5,273.6875)"/>
<path d="M0 0 C1.22257108 0.64018267 2.43776218 1.29645167 3.625 2 C1.97933477 7.68502535 -0.66532784 12.76681636 -3.375 18 C-4.48875 17.67 -5.6025 17.34 -6.75 17 C-12.95326832 15.48486544 -19.41815255 14.60298968 -25.25 17.6875 C-30.79497475 21.79078132 -33.66868657 26.32419012 -35.375 33 C-35.82938405 37.4160493 -35.86320072 41.81311754 -35.88671875 46.25 C-35.90466995 47.50385498 -35.92262115 48.75770996 -35.94111633 50.04956055 C-35.98591081 53.35715861 -36.01831531 56.66456386 -36.04455566 59.97235107 C-36.07451809 63.35800346 -36.1209938 66.74342657 -36.16601562 70.12890625 C-36.25078184 76.75251827 -36.31766801 83.376096 -36.375 90 C-42.315 90 -48.255 90 -54.375 90 C-54.375 60.3 -54.375 30.6 -54.375 0 C-43.71346154 1.18461538 -43.71346154 1.18461538 -40.375 5 C-38.83981927 7.92896323 -37.55584338 10.9126553 -36.375 14 C-36.09527344 13.49210937 -35.81554687 12.98421875 -35.52734375 12.4609375 C-27.87164437 -0.68421835 -14.77586819 -6.61396005 0 0 Z " fill="#1F3A5A" transform="translate(516.375,406)"/>
<path d="M0 0 C11.49114402 4.365057 19.81950059 23.94084277 24.6015625 34.5546875 C36.219577 63.42986974 28.17231694 90.84806428 18.18359375 118.74609375 C17.45189155 120.82938527 16.72405782 122.91403932 16 125 C15.62198242 126.07830078 15.24396484 127.15660156 14.85449219 128.26757812 C12.45388465 135.49728984 11.28662491 142.00914697 11.375 149.625 C11.38337891 150.62337891 11.39175781 151.62175781 11.40039062 152.65039062 C11.70700471 162.61208643 14.56563545 168.91466228 21.6875 175.875 C27.23042918 180.29251471 33.67201936 182.66962143 40.1953125 185.27734375 C41.24460937 185.70144531 42.29390625 186.12554688 43.375 186.5625 C44.33148437 186.93503906 45.28796875 187.30757812 46.2734375 187.69140625 C49.23773923 189.11410121 51.51389845 190.86195266 54 193 C53.67 193.99 53.34 194.98 53 196 C48.05 193.525 48.05 193.525 43 191 C43.639375 192.11375 44.27875 193.2275 44.9375 194.375 C47.35743248 199.14645698 47.7832969 203.71244433 48 209 C47.01 209 46.02 209 45 209 C44.90203125 208.43152344 44.8040625 207.86304688 44.703125 207.27734375 C43.54563652 201.30031271 42.27640483 195.64126252 37.34765625 191.66796875 C35.27785572 190.33466166 33.17491153 189.15440395 31 188 C19.05794948 181.64784547 19.05794948 181.64784547 14 177 C14.64039106 184.524595 16.98753257 188.87232814 21.89453125 194.5390625 C27.47022283 201.05610461 31.15618223 206.47505247 31.0625 215.1875 C31.05347656 216.27417969 31.04445313 217.36085938 31.03515625 218.48046875 C31.02355469 219.31191406 31.01195312 220.14335938 31 221 C30.34 221.33 29.68 221.66 29 222 C28.89042969 221.27554688 28.78085937 220.55109375 28.66796875 219.8046875 C28.50941406 218.83789062 28.35085938 217.87109375 28.1875 216.875 C28.03667969 215.92367187 27.88585937 214.97234375 27.73046875 213.9921875 C26.28257775 208.06125432 23.43446199 204.04565488 19.3125 199.625 C18.50425781 198.75101563 17.69601562 197.87703125 16.86328125 196.9765625 C16.24839844 196.32429687 15.63351562 195.67203125 15 195 C12.39010733 199.92979727 12.7043203 204.8217288 12.75 210.25 C12.74226562 211.15363281 12.73453125 212.05726563 12.7265625 212.98828125 C12.74371449 218.94859908 13.51550276 224.22695518 15 230 C12 229 12 229 10.8671875 226.890625 C10.37605469 225.58351563 10.37605469 225.58351563 9.875 224.25 C9.54242187 223.38890625 9.20984375 222.5278125 8.8671875 221.640625 C7.23016769 216.65582594 6.89713137 212.24630032 7 207 C0.64147102 211.59227093 -4.44985136 215.34955409 -7 223 C-7.66 223 -8.32 223 -9 223 C-8.79078603 213.16694326 -0.88605672 206.72662966 5.3984375 199.84765625 C8.99167915 195.70228235 8.20821156 191.23732166 8 186 C7.72295572 183.99142897 7.41770428 181.98409532 7 180 C6.34 180 5.68 180 5 180 C4.79761719 180.53625 4.59523438 181.0725 4.38671875 181.625 C2.42600951 184.98305977 -0.37739424 187.36419792 -3.1875 190 C-11.22111426 197.78277101 -16.51629434 206.34395914 -20 217 C-20.33 217 -20.66 217 -21 217 C-21.4893006 210.27211676 -20.06372725 205.94855072 -17 200 C-16.62617188 199.25234375 -16.25234375 198.5046875 -15.8671875 197.734375 C-15.58101563 197.16203125 -15.29484375 196.5896875 -15 196 C-20.64813429 197.65678606 -25.17640244 199.52252269 -30 203 C-31.3191582 203.69429379 -32.64649406 204.37530495 -34 205 C-32.63272558 200.21453954 -30.07120963 197.64628626 -26 195 C-21.33104532 192.46879704 -16.57477567 190.10223053 -11.69140625 188.01171875 C-5.2595817 185.16566773 -1.05285121 180.57017603 2.4375 174.5 C3.44940333 170.00265185 3.29976053 165.68615296 2.5 161.1875 C-0.26183729 143.58078728 5.96358467 127.4128214 12.5 111.4375 C19.10138262 95.26896423 23.59565264 80.79053942 23.4375 63.0625 C23.42920166 61.8446582 23.42090332 60.62681641 23.41235352 59.37207031 C23.03684751 39.31122974 16.39170727 21.7248346 4 6 C2.62455375 4.02351841 1.31045968 2.02029201 0 0 Z " fill="#6DC3D2" transform="translate(508,329)"/>
<path d="M0 0 C5.75307916 2.66633092 9.29649057 6.62127621 11.71875 12.50390625 C13.33002054 21.43913376 13.07678376 29.32010541 8.40625 37.31640625 C4.5425417 41.95953697 -0.98593932 44.82497689 -6.9453125 45.63671875 C-13.16259812 45.92544718 -18.4118131 44.86350646 -23.59375 41.31640625 C-29.17905449 35.69522186 -31.61852979 29.88386101 -31.96875 22.00390625 C-31.80577837 15.33112344 -30.27514893 10.13558457 -25.6171875 5.23828125 C-18.14991854 -1.44153025 -9.78881874 -2.57988446 0 0 Z " fill="#294260" transform="translate(483.59375,605.68359375)"/>
<path d="M0 0 C0.69931641 -0.02900391 1.39863281 -0.05800781 2.11914062 -0.08789062 C8.0368093 -0.15985479 11.49632666 1.69971035 15.796875 5.875 C21.84673465 13.49948066 21.79593855 19.8567664 21.1875 29.3125 C20.21055008 35.54176482 17.08650149 39.0271567 12.22265625 42.90234375 C6.7101621 46.72194142 0.70895069 47.11001487 -5.8125 46.3125 C-11.98017994 44.49270751 -16.32720995 40.65143158 -19.8125 35.3125 C-23.0916392 28.86690679 -22.49480392 21.33249296 -21.8125 14.3125 C-19.82518791 8.52967768 -15.68263969 4.80629586 -10.8125 1.3125 C-7.17695419 0.1006514 -3.78842248 0.0515198 0 0 Z " fill="#28415E" transform="translate(420.8125,604.6875)"/>
<path d="M0 0 C5.94 0 11.88 0 18 0 C18 28.05 18 56.1 18 85 C12.06 85 6.12 85 0 85 C0 56.95 0 28.9 0 0 Z " fill="#203B59" transform="translate(548,415)"/>
<path d="M0 0 C2.31 0 4.62 0 7 0 C7.33 8.58 7.66 17.16 8 26 C11.465 23.525 11.465 23.525 15 21 C20.82838932 19.89473418 26.2399776 20.18067923 31.625 22.6875 C35.30352931 26.2692259 36.8822587 28.66129408 37.34057617 33.87231445 C37.34010527 35.36938742 37.32339701 36.86651747 37.29296875 38.36328125 C37.28872391 39.15526413 37.28447906 39.94724701 37.28010559 40.76322937 C37.26338163 43.28000627 37.22574225 45.79596724 37.1875 48.3125 C37.17244499 50.02407693 37.15875801 51.73566649 37.14648438 53.44726562 C37.11349885 57.63182233 37.06176098 61.81577307 37 66 C34.66705225 66.04241723 32.33297433 66.04092937 30 66 C28.06498237 64.06498237 28.79292967 60.43312957 28.75390625 57.7890625 C28.72096442 56.30207752 28.68775283 54.8150985 28.65429688 53.328125 C28.60688335 50.97562823 28.5624692 48.62315505 28.52319336 46.27050781 C28.48347897 44.00559835 28.43192832 41.741194 28.37890625 39.4765625 C28.3704921 38.77334869 28.36207794 38.07013489 28.35340881 37.34561157 C28.26101273 33.6966793 28.0797892 32.1196838 26 29 C21.52798591 27.50932864 17.48054202 26.96491275 13.08447266 28.79931641 C9.525683 31.25669115 8.1764428 33.06524437 7.36132812 37.38354492 C7.1206715 41.54181365 7.07629994 45.6500494 7.125 49.8125 C7.11827697 51.97323471 7.10201944 54.13369937 7.08297729 56.2943573 C7.07087498 58.24153298 7.08199111 60.18881155 7.09423828 62.13598633 C7 65 7 65 6 66 C3 66.125 3 66.125 0 66 C-1.80262522 64.19737478 -1.12768703 61.4562299 -1.12939453 59.02734375 C-1.13254669 57.74931885 -1.13569885 56.47129395 -1.13894653 55.15454102 C-1.13715675 53.74886033 -1.1351058 52.34317995 -1.1328125 50.9375 C-1.13348558 49.50642887 -1.13445564 48.07535785 -1.13571167 46.64428711 C-1.13718844 43.64142776 -1.13503476 40.6385981 -1.13037109 37.63574219 C-1.12467381 33.77847429 -1.12795292 29.92127596 -1.13394356 26.06401062 C-1.13754974 23.10786409 -1.13641032 20.15173417 -1.13381577 17.19558716 C-1.13314665 15.77295931 -1.13397437 14.35032997 -1.13629532 12.92770386 C-1.13882274 10.94268826 -1.13429042 8.95766741 -1.12939453 6.97265625 C-1.12859894 5.84093994 -1.12780334 4.70922363 -1.12698364 3.54321289 C-1 1 -1 1 0 0 Z " fill="#2E4561" transform="translate(611,584)"/>
<path d="M0 0 C12.45099415 0.6331014 23.64947938 5.29667268 32.25 14.375 C37.00721807 21.5108271 40.54879053 29.21935159 40 38 C27.3010442 36.32908476 15.01301624 31.4046563 7 21 C3.15856787 14.57377443 -0.44953609 7.64211348 0 0 Z " fill="#6AC4D4" transform="translate(487,346)"/>
<path d="M0 0 C4.64605544 1.81802169 6.57536224 4.71946667 9 9 C9.53125 12.65625 9.53125 12.65625 9.5 16.5 C9.5103125 17.7684375 9.520625 19.036875 9.53125 20.34375 C8.79312269 25.42380265 6.67899034 28.56086543 2.8125 31.875 C-1.20465866 33.48186346 -4.73347745 33.66970107 -9 33 C-12.57444856 31.27896921 -14.46966849 29.68943097 -16.875 26.5625 C-18.77193653 20.55553432 -19.25026428 13.76361606 -17.23828125 7.70703125 C-13.11203426 0.05798051 -8.08882413 -0.94698429 0 0 Z " fill="#F8F9F9" transform="translate(425,611)"/>
<path d="M0 0 C3.6288526 1.71545759 5.44609712 3.27992626 7.875 6.4375 C9.82246054 12.60445837 10.38148679 19.42019495 8.015625 25.55078125 C5.84563464 29.21431436 4.04655666 31.44363206 0 33 C-4.05254261 33.63529958 -8.1662824 33.90563196 -11.9140625 32.0546875 C-15.2180643 29.46682402 -16.76588382 26.92471182 -18 23 C-19.3006924 10.06869761 -19.3006924 10.06869761 -16.25 5.3125 C-11.0521173 -0.02976833 -7.38256494 -1.03799096 0 0 Z " fill="#F9FAFA" transform="translate(479,611)"/>
<path d="M0 0 C1.98 0 3.96 0 6 0 C6 4.29 6 8.58 6 13 C9.96 13 13.92 13 18 13 C18 14.98 18 16.96 18 19 C14.04 19 10.08 19 6 19 C6.09361965 23.07549941 6.19973161 27.15046336 6.31738281 31.2253418 C6.3556435 32.61131907 6.39050156 33.99739465 6.421875 35.38354492 C6.46758699 37.3770164 6.52658925 39.37016914 6.5859375 41.36328125 C6.63306885 43.16212769 6.63306885 43.16212769 6.68115234 44.99731445 C6.78429494 48.17882706 6.78429494 48.17882706 9 51 C11.20725073 51.36362818 11.20725073 51.36362818 13.625 51.1875 C14.85089844 51.14689453 14.85089844 51.14689453 16.1015625 51.10546875 C17.04128906 51.05326172 17.04128906 51.05326172 18 51 C18.33 52.65 18.66 54.3 19 56 C14.54422653 58.97051564 10.22557394 58.62737491 5 58 C1.33044581 55.90311189 -0.48617666 53.89695455 -2 50 C-2.22705078 46.79199219 -2.22705078 46.79199219 -2.1953125 43.046875 C-2.19106766 42.05654266 -2.19106766 42.05654266 -2.18673706 41.04620361 C-2.17558415 38.94728103 -2.15048946 36.84879258 -2.125 34.75 C-2.11496384 33.32292285 -2.1058391 31.89583898 -2.09765625 30.46875 C-2.07566111 26.97902672 -2.04116536 23.48955577 -2 20 C-3.7015625 20.0309375 -3.7015625 20.0309375 -5.4375 20.0625 C-9 20 -9 20 -10 19 C-10.125 16.5 -10.125 16.5 -10 14 C-9 13 -9 13 -7.15234375 12.90234375 C-5.1015625 12.93489583 -3.05078125 12.96744792 -1 13 C-1.01160156 12.14535156 -1.02320313 11.29070313 -1.03515625 10.41015625 C-1.04417969 9.30542969 -1.05320312 8.20070313 -1.0625 7.0625 C-1.07410156 5.96035156 -1.08570313 4.85820313 -1.09765625 3.72265625 C-1 1 -1 1 0 0 Z " fill="#2A4563" transform="translate(513,592)"/>
<path d="M0 0 C0.9375 2.6875 0.9375 2.6875 1 5 C-2.28696233 5.79953138 -3.71023192 6.09658936 -7 5 C-12.15772764 4.38806621 -15.78077418 4.06018009 -20 7.3125 C-24.68200413 13.60394305 -24.6551035 18.27167755 -24 26 C-22.68796267 29.5563993 -22.68796267 29.5563993 -21 32 C-21 32.66 -21 33.32 -21 34 C-16.65230131 36.17384935 -12.76649192 36.51450931 -8 36 C-6.33066942 35.3400321 -4.6635479 34.67441131 -3 34 C-0.1875 34.375 -0.1875 34.375 2 35 C1.8125 37.3125 1.8125 37.3125 1 40 C-3.06658973 43.24708686 -6.91640414 43.48878324 -11.9375 43.4375 C-12.97293945 43.4674707 -12.97293945 43.4674707 -14.02929688 43.49804688 C-19.97028915 43.4924156 -23.38576502 41.48098514 -27.609375 37.47265625 C-33.93301594 29.6547303 -33.93439573 21.61367981 -33 12 C-31.87123286 8.71543294 -30.40002815 6.48821816 -28 4 C-27.51917969 3.50113281 -27.03835938 3.00226562 -26.54296875 2.48828125 C-19.10365226 -4.36217114 -8.53710415 -5.15783376 0 0 Z " fill="#28415E" transform="translate(597,607)"/>
<path d="M0 0 C1.98 0 3.96 0 6 0 C7.96822886 1.96822886 7.66248381 5.34808709 8 8 C8.33773438 7.50628906 8.67546875 7.01257813 9.0234375 6.50390625 C9.46945312 5.86324219 9.91546875 5.22257813 10.375 4.5625 C10.81585938 3.92441406 11.25671875 3.28632812 11.7109375 2.62890625 C13 1 13 1 15 0 C16.70702735 -0.06996014 18.41668003 -0.08440154 20.125 -0.0625 C21.03507812 -0.05347656 21.94515625 -0.04445313 22.8828125 -0.03515625 C23.93082031 -0.01775391 23.93082031 -0.01775391 25 0 C26.125 4.75 26.125 4.75 25 7 C23.14453125 7.23828125 23.14453125 7.23828125 20.8125 7.3125 C15.66580061 7.76324597 13.57715657 9.33559571 10 13 C7.61051803 16.58422296 7.69766832 18.37232596 7.5859375 22.63671875 C7.54726563 23.93544922 7.50859375 25.23417969 7.46875 26.57226562 C7.43729483 27.94400573 7.40604749 29.31575061 7.375 30.6875 C7.33680803 32.07098785 7.29775558 33.45445223 7.2578125 34.83789062 C7.16339483 38.2251245 7.07781882 41.61235069 7 45 C4.69 45 2.38 45 0 45 C0 30.15 0 15.3 0 0 Z " fill="#213D5B" transform="translate(368,605)"/>
<path d="M0 0 C11.49114402 4.365057 19.81950059 23.94084277 24.6015625 34.5546875 C28.85790462 45.13331559 30.3680137 54.93999768 30.3125 66.3125 C30.31121094 67.40812256 30.30992187 68.50374512 30.30859375 69.63256836 C30.21572693 77.4525346 29.49173928 84.53961393 27 92 C25.68 92 24.36 92 23 92 C22.505 91.505 22.505 91.505 22 91 C22.09873709 89.22591741 22.25917323 87.45535679 22.4375 85.6875 C24.69170443 55.98683352 22.95159144 30.04919954 4 6 C2.62455375 4.02351841 1.31045968 2.02029201 0 0 Z " fill="#35536C" transform="translate(508,329)"/>
<path d="M0 0 C3.58552881 1.63687185 4.79315055 2.68972583 7 6 C7.61414419 10.25912987 7.43727155 13.97241187 5.75 17.9375 C2.88417222 21.31508274 1.02690192 21.88589979 -3.375 22.375 C-7.69296607 21.92831385 -9.69326548 20.7684289 -13 18 C-15.59107284 14.58449489 -15.50288306 11.16674536 -15 7 C-11.21780369 0.70102622 -7.15112204 -0.78236844 0 0 Z " fill="#243E5D" transform="translate(560,380)"/>
<path d="M0 0 C3 0.125 3 0.125 4 1.125 C4.09785341 2.47044327 4.12797985 3.82092563 4.12939453 5.16992188 C4.13254669 6.02751099 4.13569885 6.8851001 4.13894653 7.76867676 C4.1369223 8.70095093 4.13489807 9.6332251 4.1328125 10.59375 C4.13376923 11.54439331 4.13472595 12.49503662 4.13571167 13.4744873 C4.13639357 15.48868882 4.13453862 17.50289252 4.13037109 19.51708984 C4.12502298 22.61170355 4.13031577 25.7061721 4.13671875 28.80078125 C4.13605797 30.75260449 4.13477681 32.70442764 4.1328125 34.65625 C4.13483673 35.58852417 4.13686096 36.52079834 4.13894653 37.48132324 C4.13579437 38.33891235 4.13264221 39.19650146 4.12939453 40.08007812 C4.12820114 41.21805847 4.12820114 41.21805847 4.12698364 42.37902832 C4 44.125 4 44.125 3 45.125 C0 45.25 0 45.25 -3 45.125 C-4.53084425 43.59415575 -4.12715779 42.21296856 -4.12939453 40.08007812 C-4.13254669 39.22248901 -4.13569885 38.3648999 -4.13894653 37.48132324 C-4.1369223 36.54904907 -4.13489807 35.6167749 -4.1328125 34.65625 C-4.13376923 33.70560669 -4.13472595 32.75496338 -4.13571167 31.7755127 C-4.13639357 29.76131118 -4.13453862 27.74710748 -4.13037109 25.73291016 C-4.12502298 22.63829645 -4.13031577 19.5438279 -4.13671875 16.44921875 C-4.13605797 14.49739551 -4.13477681 12.54557236 -4.1328125 10.59375 C-4.13483673 9.66147583 -4.13686096 8.72920166 -4.13894653 7.76867676 C-4.13579437 6.91108765 -4.13264221 6.05349854 -4.12939453 5.16992188 C-4.12859894 4.41126831 -4.12780334 3.65261475 -4.12698364 2.87097168 C-3.90296478 -0.20919341 -3.12564855 0.13023536 0 0 Z " fill="#233D5B" transform="translate(547,604.875)"/>
<path d="M0 0 C2.31 0 4.62 0 7 0 C7 14.85 7 29.7 7 45 C4.69 45 2.38 45 0 45 C0 30.15 0 15.3 0 0 Z " fill="#263E5B" transform="translate(665,605)"/>
<path d="M0 0 C3.19391571 1.21291944 6.37871797 2.44825011 9.5625 3.6875 C10.45775391 4.02716797 11.35300781 4.36683594 12.27539062 4.71679688 C17.81767769 6.88904858 22.31009517 9.32656288 27 13 C26.67 13.99 26.34 14.98 26 16 C22.7 14.35 19.4 12.7 16 11 C16.639375 12.11375 17.27875 13.2275 17.9375 14.375 C20.35743248 19.14645698 20.7832969 23.71244433 21 29 C20.01 29 19.02 29 18 29 C17.85304688 28.14728516 17.85304688 28.14728516 17.703125 27.27734375 C16.52424338 21.18984296 15.23650622 15.54494507 10.171875 11.5625 C6.28185484 9.06813593 2.17254319 6.98195802 -2 5 C-1.34 3.35 -0.68 1.7 0 0 Z " fill="#71C8D8" transform="translate(535,509)"/>
<path d="M0 0 C0.87970459 -0.0004985 1.75940918 -0.00099701 2.66577148 -0.00151062 C4.53192394 0.00083136 6.39807946 0.01056716 8.26416016 0.02709961 C11.08655955 0.05046305 13.9079987 0.04768988 16.73046875 0.04101562 C37.18671238 0.07028681 37.18671238 0.07028681 43.125 2.36328125 C43.785 3.35328125 44.445 4.34328125 45.125 5.36328125 C44.21943359 5.29761963 43.31386719 5.23195801 42.38085938 5.16430664 C30.79959712 4.37723758 19.22879129 4.05081897 7.625 3.80078125 C5.72264965 3.75745012 3.82030582 3.71383201 1.91796875 3.66992188 C-2.67961937 3.56441092 -7.27727725 3.46274506 -11.875 3.36328125 C-8.51662931 -0.59034561 -4.87694888 -0.05303931 0 0 Z " fill="#60C0C9" transform="translate(502.875,273.63671875)"/>
<path d="M0 0 C0.64630371 0.0515625 1.29260742 0.103125 1.95849609 0.15625 C4.18222967 0.33926478 6.40343283 0.54235973 8.625 0.75 C9.88666992 0.86698242 9.88666992 0.86698242 11.17382812 0.98632812 C14.76986172 1.3223813 18.36537675 1.66231883 21.95947266 2.01855469 C28.11002825 2.62649129 34.24872205 3.08967805 40.421875 3.40625 C41.14890625 3.5196875 41.8759375 3.633125 42.625 3.75 C43.12 4.74 43.12 4.74 43.625 5.75 C3.07809602 6.26804398 3.07809602 6.26804398 -9.375 1.75 C-5.68061543 -0.71292305 -4.36074207 -0.36580176 0 0 Z " fill="#64C7D5" transform="translate(475.375,744.25)"/>
<path d="M0 0 C0 0.66 0 1.32 0 2 C0.66 2 1.32 2 2 2 C3.16796875 4.19921875 3.16796875 4.19921875 4 7 C2.98828125 9.39453125 2.98828125 9.39453125 1.3125 11.8125 C-1.51544961 16.12884415 -3.37136259 20.11408778 -5 25 C-5.33 25 -5.66 25 -6 25 C-6.4893006 18.27211676 -5.06372725 13.94855072 -2 8 C-1.62617188 7.25234375 -1.25234375 6.5046875 -0.8671875 5.734375 C-0.43792969 4.87585938 -0.43792969 4.87585938 0 4 C-5.64813429 5.65678606 -10.17640244 7.52252269 -15 11 C-16.3191582 11.69429379 -17.64649406 12.37530495 -19 13 C-17.39515308 7.3830358 -13.73679393 4.64000695 -8.93359375 1.76171875 C-3.48106462 -1.16035487 -3.48106462 -1.16035487 0 0 Z " fill="#74CADB" transform="translate(493,521)"/>
<path d="M0 0 C0.33 0 0.66 0 1 0 C1 13.86 1 27.72 1 42 C2.32 42 3.64 42 5 42 C6.10190125 37.49436109 6.21801233 33.03092105 6.31640625 28.41796875 C6.33718735 27.60378983 6.35796844 26.7896109 6.37937927 25.95075989 C6.44449463 23.36308821 6.50358208 20.77531947 6.5625 18.1875 C6.60572142 16.42772455 6.64933685 14.66795872 6.69335938 12.90820312 C6.8001368 8.60556691 6.90151018 4.30283357 7 0 C7.33 0 7.66 0 8 0 C8.02464513 6.1055471 8.04283371 12.21106551 8.05493164 18.31665039 C8.05997288 20.39543156 8.06680574 22.47420916 8.07543945 24.55297852 C8.08751422 27.53402586 8.09323024 30.51502649 8.09765625 33.49609375 C8.10281754 34.43150497 8.10797882 35.3669162 8.11329651 36.33067322 C8.11337204 37.19149002 8.11344757 38.05230682 8.11352539 38.93920898 C8.115746 39.70087875 8.11796661 40.46254852 8.12025452 41.24729919 C8 43 8 43 7 44 C4 44.125 4 44.125 1 44 C0 43 0 43 -0.12025452 41.24729919 C-0.11803391 40.48562943 -0.11581329 39.72395966 -0.11352539 38.93920898 C-0.11344986 38.07839218 -0.11337433 37.21757538 -0.11329651 36.33067322 C-0.10813522 35.39526199 -0.10297394 34.45985077 -0.09765625 33.49609375 C-0.0962413 32.54307877 -0.09482635 31.59006378 -0.09336853 30.60816956 C-0.08775152 27.55124835 -0.07519616 24.49439923 -0.0625 21.4375 C-0.05748719 19.37044376 -0.05292391 17.30338638 -0.04882812 15.23632812 C-0.03777656 10.15752412 -0.02050055 5.0787743 0 0 Z " fill="#4B6076" transform="translate(543,606)"/>
<path d="M0 0 C0.90105469 0.01804687 1.80210937 0.03609375 2.73046875 0.0546875 C3.41753906 0.07789063 4.10460937 0.10109375 4.8125 0.125 C5.9375 4.875 5.9375 4.875 4.8125 7.125 C2.95703125 7.3984375 2.95703125 7.3984375 0.625 7.5 C-4.08404211 7.89868887 -6.52005525 9.20985161 -10.1875 12.125 C-9.61165568 9.73935923 -8.96522405 7.45817216 -8.1875 5.125 C-8.1875 4.135 -8.1875 3.145 -8.1875 2.125 C-4.87379 -0.08414 -3.8428979 -0.09981553 0 0 Z " fill="#2A425E" transform="translate(388.1875,604.875)"/>
<path d="M0 0 C3.30686529 1.39575483 5.01575326 2.9247093 7.125 5.8125 C7.87136719 6.81216797 7.87136719 6.81216797 8.6328125 7.83203125 C11.50542841 12.38717934 12.24314542 15.93688346 12.125 21.3125 C12.10695313 22.38113281 12.08890625 23.44976563 12.0703125 24.55078125 C12.03550781 25.76314453 12.03550781 25.76314453 12 27 C11.34 27.33 10.68 27.66 10 28 C9.89042969 27.27554688 9.78085937 26.55109375 9.66796875 25.8046875 C8.24997355 17.15837531 5.68692617 11.5649323 0.109375 4.83203125 C-0.25671875 4.22746094 -0.6228125 3.62289062 -1 3 C-0.67 2.01 -0.34 1.02 0 0 Z " fill="#76CDD6" transform="translate(527,523)"/>
<path d="M0 0 C3 0.25 3 0.25 5 2.25 C5.25 5.25 5.25 5.25 5 8.25 C3 10.25 3 10.25 0 10.5 C-3 10.25 -3 10.25 -5 8.25 C-5.25 5.25 -5.25 5.25 -5 2.25 C-3 0.25 -3 0.25 0 0 Z " fill="#2D4460" transform="translate(668,585.75)"/>
<path d="M0 0 C3.625 0.375 3.625 0.375 7 1 C7.625 4.375 7.625 4.375 8 8 C6 10 6 10 3 10.25 C0 10 0 10 -2 8 C-2.25 5 -2.25 5 -2 2 C-1.34 1.34 -0.68 0.68 0 0 Z " fill="#2C4663" transform="translate(544,586)"/>
<path d="M0 0 C0 2.64 0 5.28 0 8 C-0.33 8 -0.66 8 -1 8 C-1 5.69 -1 3.38 -1 1 C-7.35852898 5.59227093 -12.44985136 9.34955409 -15 17 C-15.66 17 -16.32 17 -17 17 C-16.85540225 10.20390569 -13.85362107 5.69119674 -9 1 C-5.55452158 -0.70974721 -3.66148921 -1.35610711 0 0 Z " fill="#77D0DC" transform="translate(516,535)"/>
<path d="M0 0 C2.625 1.9375 2.625 1.9375 5 5 C4.97903128 10.60913284 2.33851457 16.00408252 0 21 C-1.0765283 17.77041509 -1 15.38380002 -1 12 C-1.20625 11.195625 -1.4125 10.39125 -1.625 9.5625 C-2.14243165 6.02671706 -1.11613883 3.3484165 0 0 Z " fill="#56B0BB" transform="translate(529,417)"/>
<path d="M0 0 C2.22988284 0.08750555 4.45896005 0.19569061 6.6875 0.3125 C7.92886719 0.37050781 9.17023437 0.42851562 10.44921875 0.48828125 C14.07002103 1.01009104 16.08787355 1.83400155 19 4 C19 4.33 19 4.66 19 5 C16.39421134 4.91304042 13.7918721 4.80618592 11.1875 4.6875 C10.44951172 4.66494141 9.71152344 4.64238281 8.95117188 4.61914062 C3.47063925 4.34635393 3.47063925 4.34635393 0.98828125 2.51953125 C0 1 0 1 0 0 Z " fill="#6EC7CE" transform="translate(529,274)"/>
<path d="M0 0 C0.66 0 1.32 0 2 0 C2.33 1.32 2.66 2.64 3 4 C-1.46825784 7.60636039 -5.32146365 10.58036591 -11 12 C-11 11.01 -11 10.02 -11 9 C-8.84765625 6.9921875 -8.84765625 6.9921875 -6.0625 4.875 C-5.14597656 4.17117188 -4.22945312 3.46734375 -3.28515625 2.7421875 C-2.53105469 2.16726563 -1.77695312 1.59234375 -1 1 C-0.67 0.67 -0.34 0.34 0 0 Z " fill="#5FC5D4" transform="translate(668,687)"/>
<path d="M0 0 C3.63 1.98 7.26 3.96 11 6 C11 6.99 11 7.98 11 9 C8 10 8 10 5.51953125 8.78515625 C4.62621094 8.21667969 3.73289062 7.64820313 2.8125 7.0625 C1.91144531 6.49660156 1.01039063 5.93070312 0.08203125 5.34765625 C-0.60503906 4.90292969 -1.29210937 4.45820313 -2 4 C-1.34 2.68 -0.68 1.36 0 0 Z " fill="#80CED7" transform="translate(634,307)"/>
<path d="M0 0 C0.33 0 0.66 0 1 0 C1.33 2.64 1.66 5.28 2 8 C2.99 8 3.98 8 5 8 C4.67 10.31 4.34 12.62 4 15 C2.68 15 1.36 15 0 15 C-0.33 14.67 -0.66 14.34 -1 14 C-0.90968426 11.64305046 -0.75311872 9.28846418 -0.5625 6.9375 C-0.46066406 5.64714844 -0.35882812 4.35679687 -0.25390625 3.02734375 C-0.17011719 2.02832031 -0.08632813 1.02929688 0 0 Z " fill="#397D93" transform="translate(531,406)"/>
<path d="M0 0 C1.17369141 0.03867187 1.17369141 0.03867187 2.37109375 0.078125 C3.54865234 0.10132813 3.54865234 0.10132813 4.75 0.125 C6.80859375 0.328125 6.80859375 0.328125 8.80859375 1.328125 C10.84607005 1.55670614 12.88899678 1.73836778 14.93359375 1.890625 C16.57714844 2.01630859 16.57714844 2.01630859 18.25390625 2.14453125 C19.09695313 2.20511719 19.94 2.26570313 20.80859375 2.328125 C20.80859375 2.658125 20.80859375 2.988125 20.80859375 3.328125 C12.22859375 3.328125 3.64859375 3.328125 -5.19140625 3.328125 C-2.19140625 0.328125 -2.19140625 0.328125 0 0 Z " fill="#6AC5CC" transform="translate(496.19140625,273.671875)"/>
<path d="M0 0 C2.22919924 3.34379886 2.35185595 4.12958459 2 8 C1.38024152 10.34622853 0.70812814 12.67891331 0 15 C-0.69094938 17.66108883 -1.34419512 20.32993728 -2 23 C-2.66 23 -3.32 23 -4 23 C-3.32545897 15.1753241 -1.73123042 7.65443386 0 0 Z " fill="#344D62" transform="translate(264,451)"/>
<path d="M0 0 C1.47265625 1.390625 1.47265625 1.390625 3.0625 3.25 C3.58972656 3.85328125 4.11695313 4.4565625 4.66015625 5.078125 C6.05446823 7.07812935 6.57323058 8.61852126 7 11 C3 11 3 11 1.078125 9.3203125 C0.47484375 8.59585937 -0.1284375 7.87140625 -0.75 7.125 C-1.36359375 6.40570313 -1.9771875 5.68640625 -2.609375 4.9453125 C-4 3 -4 3 -4 1 C-2 0 -2 0 0 0 Z " fill="#67C9D2" transform="translate(688,350)"/>
<path d="M0 0 C0.66 0 1.32 0 2 0 C2.67507066 3.06070934 3.33854922 6.1238209 4 9.1875 C4.19078125 10.05181641 4.3815625 10.91613281 4.578125 11.80664062 C4.75859375 12.64775391 4.9390625 13.48886719 5.125 14.35546875 C5.29257812 15.12528076 5.46015625 15.89509277 5.6328125 16.68823242 C6.02550915 19.16060247 6.06185285 21.50075809 6 24 C5.34 24 4.68 24 4 24 C3.79503906 22.78441406 3.59007812 21.56882812 3.37890625 20.31640625 C3.10698039 18.73173486 2.83483357 17.14710137 2.5625 15.5625 C2.36043945 14.35883789 2.36043945 14.35883789 2.15429688 13.13085938 C1.79732776 9.24528697 1.79732776 9.24528697 0 6 C-0.04080783 4.00041636 -0.04254356 1.99954746 0 0 Z " fill="#354D65" transform="translate(757,447)"/>
<path d="M0 0 C0.33 0 0.66 0 1 0 C1.04898438 1.05058594 1.09796875 2.10117187 1.1484375 3.18359375 C1.53376426 10.65875491 2.05427553 17.73596197 4 25 C3.01 24.67 2.02 24.34 1 24 C0.05078125 21.93359375 0.05078125 21.93359375 -0.6875 19.4375 C-0.93886719 18.61121094 -1.19023438 17.78492188 -1.44921875 16.93359375 C-1.63097656 16.29550781 -1.81273437 15.65742187 -2 15 C-1.34 15 -0.68 15 0 15 C0 10.05 0 5.1 0 0 Z " fill="#8DD7DE" transform="translate(519,534)"/>
<path d="M0 0 C4.28632628 1.5450711 6.49235837 4.79319716 9.125 8.3125 C9.56714844 8.88162109 10.00929688 9.45074219 10.46484375 10.03710938 C12.88537079 13.22182093 14.73108428 16.20038159 16 20 C15.34 20.33 14.68 20.66 14 21 C13.40832031 20.07058594 12.81664062 19.14117187 12.20703125 18.18359375 C8.27125817 12.01985185 4.34503511 5.88682177 0 0 Z " fill="#516B81" transform="translate(508,329)"/>
<path d="M0 0 C0.99 0.33 1.98 0.66 3 1 C2.67 4.96 2.34 8.92 2 13 C1.01 13.33 0.02 13.66 -1 14 C-1.02694851 12.04174127 -1.04637218 10.08337774 -1.0625 8.125 C-1.07410156 7.03445313 -1.08570313 5.94390625 -1.09765625 4.8203125 C-1 2 -1 2 0 0 Z " fill="#73C6D1" transform="translate(276,478)"/>
<path d="M0 0 C0.66 0 1.32 0 2 0 C2.87191947 1.38481328 3.72190384 2.78345246 4.5625 4.1875 C5.03816406 4.96480469 5.51382813 5.74210937 6.00390625 6.54296875 C7.19605797 9.48360967 6.88855164 11.00446363 6 14 C3.2079853 12.60399265 2.99837067 10.99583616 1.875 8.125 C1.34519531 6.79855469 1.34519531 6.79855469 0.8046875 5.4453125 C0 3 0 3 0 0 Z " fill="#284362" transform="translate(523,349)"/>
<path d="M0 0 C0.99 0 1.98 0 3 0 C3.33 2.97 3.66 5.94 4 9 C3.01 9.495 3.01 9.495 2 10 C2 11.98 2 13.96 2 16 C1.67 16 1.34 16 1 16 C0.63705686 13.8973294 0.28493028 11.79278943 -0.0625 9.6875 C-0.35833984 7.92986328 -0.35833984 7.92986328 -0.66015625 6.13671875 C-1 3 -1 3 0 0 Z " fill="#8CCDD7" transform="translate(278,550)"/>
<path d="M0 0 C0.33 0 0.66 0 1 0 C1.02721176 1.89575251 1.04649136 3.79161979 1.0625 5.6875 C1.07410156 6.74324219 1.08570313 7.79898437 1.09765625 8.88671875 C1.00865425 11.72410262 0.64939838 14.2438919 0 17 C-2.49505962 14.50494038 -2.35948376 13.32671112 -2.625 9.875 C-2.69976563 8.96492188 -2.77453125 8.05484375 -2.8515625 7.1171875 C-2.92503906 6.06917969 -2.92503906 6.06917969 -3 5 C-2.34 5 -1.68 5 -1 5 C-0.67 3.35 -0.34 1.7 0 0 Z " fill="#77CAD5" transform="translate(749,487)"/>
<path d="M0 0 C1.5 1.125 1.5 1.125 3 3 C3.1875 6.1875 3.1875 6.1875 3 9 C2.38125 9.28875 1.7625 9.5775 1.125 9.875 C-1.13325765 10.93720042 -1.13325765 10.93720042 -3 13 C-2.45144652 8.428721 -1.58255197 4.32564205 0 0 Z " fill="#63BCC8" transform="translate(526,426)"/>
<path d="M0 0 C0.33 0 0.66 0 1 0 C1.1953125 2.05078125 1.390625 4.1015625 1.5859375 6.15234375 C1.72257812 6.76207031 1.85921875 7.37179687 2 8 C2.66 8.33 3.32 8.66 4 9 C4.4140625 11.06640625 4.4140625 11.06640625 4.625 13.5625 C4.69976562 14.38878906 4.77453125 15.21507812 4.8515625 16.06640625 C4.90054687 16.70449219 4.94953125 17.34257813 5 18 C4.34 18.33 3.68 18.66 3 19 C0.04328652 12.47059106 -0.35368021 7.12600133 0 0 Z " fill="#495E72" transform="translate(452,622)"/>
<path d="M0 0 C2.10827055 3.16240582 2.33817465 4.50657469 2.625 8.1875 C2.69976563 9.08855469 2.77453125 9.98960937 2.8515625 10.91796875 C2.90054688 11.60503906 2.94953125 12.29210937 3 13 C2.01 13 1.02 13 0 13 C-0.39036513 11.39950296 -0.76178619 9.79437629 -1.125 8.1875 C-1.33382812 7.29417969 -1.54265625 6.40085937 -1.7578125 5.48046875 C-2 3 -2 3 0 0 Z " fill="#87D2D9" transform="translate(553,525)"/>
<path d="M0 0 C1.65 0.33 3.3 0.66 5 1 C4.8125 3.3125 4.8125 3.3125 4 6 C-0.03448276 9 -0.03448276 9 -3 9 C-2 6 -2 6 1 4 C0.67 2.68 0.34 1.36 0 0 Z " fill="#385370" transform="translate(594,641)"/>
<path d="M0 0 C2.26562673 2.26562673 2.94462749 3.84160705 3.09765625 7.04296875 C3.06510417 9.02864583 3.03255208 11.01432292 3 13 C0 11 0 11 -0.546875 9.16015625 C-0.61390625 8.46792969 -0.6809375 7.77570313 -0.75 7.0625 C-0.86601563 6.02802734 -0.86601563 6.02802734 -0.984375 4.97265625 C-1 3 -1 3 0 0 Z " fill="#65C3CF" transform="translate(742,454)"/>
<path d="M0 0 C2.44553939 3.66830909 2.95607424 6.63377915 3 11 C2.0625 13.5 2.0625 13.5 1 15 C-0.64284201 12.04288438 -1.6442194 9.37991574 -2 6 C-1.34 5.34 -0.68 4.68 0 4 C0 2.68 0 1.36 0 0 Z " fill="#78CCD5" transform="translate(740,443)"/>
<path d="M0 0 C0.66 0.33 1.32 0.66 2 1 C0.85821872 2.66944521 -0.28852905 4.3354948 -1.4375 6 C-2.07558594 6.928125 -2.71367187 7.85625 -3.37109375 8.8125 C-3.90863281 9.534375 -4.44617188 10.25625 -5 11 C-5.33 11 -5.66 11 -6 11 C-6.36444983 6.74808535 -5.56111503 4.41482003 -3 1 C-2.01 0.67 -1.02 0.34 0 0 Z " fill="#2A445F" transform="translate(315,361)"/>
<path d="M0 0 C3 1 3 1 5 4 C5 5.32 5 6.64 5 8 C3.68 7.67 2.36 7.34 1 7 C0.67 4.69 0.34 2.38 0 0 Z " fill="#65C7CE" transform="translate(712,385)"/>
<path d="M0 0 C0.99 0.66 1.98 1.32 3 2 C-1.455 4.97 -1.455 4.97 -6 8 C-6.33 7.34 -6.66 6.68 -7 6 C-4.88929795 2.83394693 -3.26460973 1.80412643 0 0 Z " fill="#2A4565" transform="translate(669,709)"/>
<path d="M0 0 C-1.36370299 2.99220268 -2.94908083 5.29026529 -5.125 7.75 C-5.93324219 8.67039062 -5.93324219 8.67039062 -6.7578125 9.609375 C-7.16773438 10.06828125 -7.57765625 10.5271875 -8 11 C-8.33 10.01 -8.66 9.02 -9 8 C-7.63671875 5.95703125 -7.63671875 5.95703125 -5.6875 3.8125 C-5.05199219 3.09707031 -4.41648437 2.38164062 -3.76171875 1.64453125 C-2 0 -2 0 0 0 Z " fill="#73CCD5" transform="translate(335,357)"/>
<path d="M0 0 C2.64 0.33 5.28 0.66 8 1 C7.34 2.32 6.68 3.64 6 5 C3.36 4.67 0.72 4.34 -2 4 C-1.34 2.68 -0.68 1.36 0 0 Z " fill="#7FCFD8" transform="translate(454,740)"/>
<path d="M0 0 C0.33 0.66 0.66 1.32 1 2 C1.66 2.33 2.32 2.66 3 3 C-2.75 8 -2.75 8 -5 8 C-3.8141763 4.62496331 -2.72426311 2.35277269 0 0 Z " fill="#7BD1E0" transform="translate(479,526)"/>
<path d="M0 0 C0 3 0 3 -2.5 5.6875 C-3.325 6.450625 -4.15 7.21375 -5 8 C-5.99 7.67 -6.98 7.34 -8 7 C-5.36 4.69 -2.72 2.38 0 0 Z " fill="#2C4B68" transform="translate(491,407)"/>
<path d="M0 0 C1.485 0.99 1.485 0.99 3 2 C3.29296875 4.3828125 3.29296875 4.3828125 3.1875 7.125 C3.16042969 8.03507813 3.13335937 8.94515625 3.10546875 9.8828125 C3.07066406 10.58148437 3.03585937 11.28015625 3 12 C2.67 12 2.34 12 2 12 C0.70756464 7.8803623 -0.26252625 4.33168317 0 0 Z " fill="#213C54" transform="translate(492,616)"/>
<path d="M0 0 C1 2 1 2 0.3125 4.4375 C-1.10829685 7.21143671 -2.39746148 8.35172561 -5 10 C-5.66 9.67 -6.32 9.34 -7 9 C-4.69 6.03 -2.38 3.06 0 0 Z " fill="#304D64" transform="translate(709,659)"/>
<path d="M0 0 C0.99 0 1.98 0 3 0 C3 1.65 3 3.3 3 5 C1.02 5.99 1.02 5.99 -1 7 C-0.67 4.69 -0.34 2.38 0 0 Z " fill="#2D455A" transform="translate(268,436)"/>
<path d="M0 0 C0.66 0.33 1.32 0.66 2 1 C0.02 3.97 0.02 3.97 -2 7 C-2.66 5.68 -3.32 4.36 -4 3 C-2.68 2.01 -1.36 1.02 0 0 Z " fill="#2B4766" transform="translate(719,657)"/>
<path d="M0 0 C0.66 0.33 1.32 0.66 2 1 C0.79618552 3.49361571 -0.45428722 5.68143083 -2 8 C-2.33 7.34 -2.66 6.68 -3 6 C-1.44444444 1.44444444 -1.44444444 1.44444444 0 0 Z " fill="#1D3853" transform="translate(379,609)"/>
<path d="M0 0 C0.99 1.485 0.99 1.485 2 3 C3.32303717 3.3721042 4.65737935 3.70630173 6 4 C6.66 4.66 7.32 5.32 8 6 C5.66705225 6.04241723 3.33297433 6.04092937 1 6 C0 5 0 5 -0.0625 2.4375 C-0.041875 1.633125 -0.02125 0.82875 0 0 Z " fill="#566E87" transform="translate(503,606)"/>
<path d="M0 0 C0.99 0.33 1.98 0.66 3 1 C-0.465 3.97 -0.465 3.97 -4 7 C-4 4 -4 4 -2 1.8125 C-1.34 1.214375 -0.68 0.61625 0 0 Z " fill="#81D1D7" transform="translate(344,345)"/>
<path d="M0 0 C0.66 0.66 1.32 1.32 2 2 C-1.465 4.97 -1.465 4.97 -5 8 C-3.95206337 3.80825346 -3.08236365 2.78407039 0 0 Z " fill="#80CFD6" transform="translate(352,337)"/>
<path d="M0 0 C-1.625 1.5625 -1.625 1.5625 -4 3 C-7.25 2.6875 -7.25 2.6875 -10 2 C-6.3558226 -0.4294516 -4.28758728 -0.16179575 0 0 Z " fill="#60C6D2" transform="translate(476,744)"/>
<path d="M0 0 C0.66 0 1.32 0 2 0 C1.1875 2.9375 1.1875 2.9375 0 6 C-0.99 6.33 -1.98 6.66 -3 7 C-2.67 5.35 -2.34 3.7 -2 2 C-1.34 2 -0.68 2 0 2 C0 1.34 0 0.68 0 0 Z " fill="#63C2CB" transform="translate(740,574)"/>
<path d="M0 0 C1.32 0.66 2.64 1.32 4 2 C4 2.99 4 3.98 4 5 C3.01 5 2.02 5 1 5 C1 5.66 1 6.32 1 7 C0.34 7 -0.32 7 -1 7 C-0.67 4.69 -0.34 2.38 0 0 Z " fill="#7FCCD3" transform="translate(739,569)"/>
<path d="M0 0 C0.99 0 1.98 0 3 0 C3 1.98 3 3.96 3 6 C2.01 6.33 1.02 6.66 0 7 C0 4.69 0 2.38 0 0 Z " fill="#69C1CE" transform="translate(275,485)"/>
<path d="M0 0 C1.32 0.33 2.64 0.66 4 1 C4 2.98 4 4.96 4 7 C3.01 6.67 2.02 6.34 1 6 C0.67 4.02 0.34 2.04 0 0 Z " fill="#85CDD5" transform="translate(276,474)"/>
<path d="M0 0 C0.66 0.99 1.32 1.98 2 3 C1.3125 6.125 1.3125 6.125 0 9 C-0.99 9.33 -1.98 9.66 -3 10 C-2.01 6.7 -1.02 3.4 0 0 Z " fill="#3B5569" transform="translate(274,419)"/>
<path d="M0 0 C1.125 1.625 1.125 1.625 2 4 C1.125 7.25 1.125 7.25 0 10 C-0.33 10 -0.66 10 -1 10 C-2.25 3.375 -2.25 3.375 0 0 Z " fill="#3F5973" transform="translate(530,360)"/>
<path d="M0 0 C1.32 0.66 2.64 1.32 4 2 C2.35 3.32 0.7 4.64 -1 6 C-1.33 5.01 -1.66 4.02 -2 3 C-1.34 2.01 -0.68 1.02 0 0 Z " fill="#2D4967" transform="translate(689,690)"/>
<path d="M0 0 C1.32 0.33 2.64 0.66 4 1 C4.33 2.98 4.66 4.96 5 7 C3.29115995 5.37660195 1.62553283 3.70680947 0 2 C0 1.34 0 0.68 0 0 Z " fill="#69C3CE" transform="translate(320,652)"/>
<path d="M0 0 C1.32 0.33 2.64 0.66 4 1 C4 2.65 4 4.3 4 6 C3.01 6 2.02 6 1 6 C0.67 4.02 0.34 2.04 0 0 Z " fill="#6BC1CE" transform="translate(290,597)"/>
<path d="M0 0 C1.5625 1.125 1.5625 1.125 3 3 C2.6875 6.1875 2.6875 6.1875 2 9 C-0.29013653 5.5647952 -0.17842973 4.014669 0 0 Z " fill="#65C3CE" transform="translate(744,548)"/>
<path d="M0 0 C0.66 0 1.32 0 2 0 C0.125 5.75 0.125 5.75 -1 8 C-1.66 8 -2.32 8 -3 8 C-1.125 2.25 -1.125 2.25 0 0 Z " fill="#395266" transform="translate(282,401)"/>
<path d="M0 0 C0.99 0.33 1.98 0.66 3 1 C2.34 2.32 1.68 3.64 1 5 C-0.32 5 -1.64 5 -3 5 C-1.125 1.125 -1.125 1.125 0 0 Z " fill="#62C8CE" transform="translate(368,321)"/>
<path d="M0 0 C0.66 0.33 1.32 0.66 2 1 C-1.465 3.97 -1.465 3.97 -5 7 C-5.66 6.67 -6.32 6.34 -7 6 C-4.69 4.02 -2.38 2.04 0 0 Z " fill="#304C63" transform="translate(342,322)"/>
</svg>
